<svg width="159" height="152" viewBox="0 0 159 152" fill="none" xmlns="http://www.w3.org/2000/svg">
<path d="M33.1383 20L0 30.1596H159L131.597 20H33.1383Z" fill="url(#paint0_linear_218_20709)"/>
<rect y="30.0566" width="159" height="121.943" fill="url(#paint1_linear_218_20709)"/>
<rect x="66" width="24" height="24" rx="8" fill="#FFD365"/>
<path d="M75.711 15.9254C76.1213 14.9073 76.957 14.125 78 14.125C79.043 14.125 79.8787 14.9073 80.289 15.9254C80.4197 16.2498 80.3932 16.5928 80.2652 16.8613C80.1417 17.1204 79.884 17.375 79.5206 17.375H76.4794C76.116 17.375 75.8584 17.1204 75.7348 16.8613C75.6069 16.5928 75.5803 16.2498 75.711 15.9254Z" fill="#5F5434"/>
<path d="M82.4982 9.027C82.371 9.00933 82.1665 9.00001 81.8512 9.00001H81.2501C80.9739 9.00001 80.7501 8.77615 80.7501 8.50001C80.7501 8.22386 80.9739 8.00001 81.2501 8.00001L81.8821 8C82.1555 7.99996 82.4106 7.99993 82.6151 8.02835C82.8382 8.05937 83.0993 8.13577 83.2932 8.36933C83.4901 8.60662 83.5129 8.87913 83.4951 9.10537C83.4792 9.30808 83.4159 9.58298 83.357 9.83904L83.1616 10.6886C82.8192 12.1775 81.5715 13.2701 80.0742 13.4945C79.8011 13.5354 79.5465 13.3472 79.5056 13.0741C79.4647 12.801 79.6529 12.5464 79.926 12.5055C81.0395 12.3387 81.9418 11.531 82.187 10.4645L82.3824 9.61493C82.4512 9.31597 82.4888 9.14644 82.4982 9.027Z" fill="#5F5434"/>
<path d="M73.5018 9.027C73.629 9.00933 73.8335 9.00001 74.1488 9.00001H74.7499C75.0261 9.00001 75.2499 8.77615 75.2499 8.50001C75.2499 8.22386 75.0261 8.00001 74.7499 8.00001L74.1179 8C73.8445 7.99996 73.5894 7.99993 73.3849 8.02835C73.1618 8.05937 72.9007 8.13577 72.7068 8.36933C72.5099 8.60662 72.4871 8.87913 72.5049 9.10537C72.5208 9.30808 72.5769 9.55175 72.6358 9.80781L72.8384 10.6886C73.1808 12.1775 74.4285 13.2701 75.9258 13.4945C76.1989 13.5354 76.4535 13.3472 76.4944 13.0741C76.5353 12.801 76.3471 12.5464 76.074 12.5055C74.9605 12.3387 74.0582 11.531 73.813 10.4645L73.6176 9.61493C73.5488 9.31597 73.5112 9.14644 73.5018 9.027Z" fill="#5F5434"/>
<path d="M76.5633 6.625L76.5933 6.625L79.4367 6.625H79.4367C79.8632 6.62498 80.228 6.62495 80.5193 6.67229C80.8366 6.72385 81.1162 6.83846 81.3326 7.10084C81.5416 7.35409 81.6133 7.63825 81.6236 7.95338C81.6331 8.24416 81.5905 8.59743 81.5405 9.01246C81.3454 10.6321 80.9178 12.0877 80.3317 13.1226C79.7563 14.1388 78.9628 14.875 78 14.875C77.0372 14.875 76.2436 14.1388 75.6682 13.1226C75.0822 12.0877 74.6546 10.6321 74.4594 9.01247C74.4094 8.59743 74.3668 8.24416 74.3763 7.95338C74.3867 7.63825 74.4584 7.35409 74.6673 7.10084C74.8838 6.83846 75.1634 6.72385 75.4806 6.67229C75.7719 6.62495 76.1367 6.62498 76.5633 6.625H76.5633Z" fill="#5F5434"/>
<defs>
<linearGradient id="paint0_linear_218_20709" x1="85.6154" y1="37.6239" x2="85.6154" y2="24.4578" gradientUnits="userSpaceOnUse">
<stop offset="0.0887564" stop-color="#212121"/>
<stop offset="1" stop-color="#212121"/>
</linearGradient>
<linearGradient id="paint1_linear_218_20709" x1="79.5" y1="30.0566" x2="79.5" y2="130.331" gradientUnits="userSpaceOnUse">
<stop stop-color="#1B1B21"/>
<stop offset="0.454412" stop-color="#1B1B21"/>
<stop offset="1" stop-color="#030303"/>
</linearGradient>
</defs>
</svg>
