<svg width="159" height="152" viewBox="0 0 159 152" fill="none" xmlns="http://www.w3.org/2000/svg">
<path d="M33.1383 19.9375L0 30.0971H159L131.597 19.9375H33.1383Z" fill="url(#paint0_linear_218_20734)"/>
<rect y="29.9941" width="159" height="121.943" fill="url(#paint1_linear_218_20734)"/>
<rect x="68" width="24" height="24" rx="8" fill="#CDCDCD"/>
<path d="M77.711 15.9254C78.1213 14.9073 78.957 14.125 80 14.125C81.043 14.125 81.8787 14.9073 82.289 15.9254C82.4197 16.2498 82.3932 16.5928 82.2652 16.8613C82.1417 17.1204 81.884 17.375 81.5206 17.375H78.4794C78.116 17.375 77.8584 17.1204 77.7348 16.8613C77.6069 16.5928 77.5803 16.2498 77.711 15.9254Z" fill="#585858"/>
<path d="M84.4982 9.027C84.371 9.00933 84.1665 9.00001 83.8512 9.00001H83.2501C82.9739 9.00001 82.7501 8.77615 82.7501 8.50001C82.7501 8.22386 82.9739 8.00001 83.2501 8.00001L83.8821 8C84.1555 7.99996 84.4106 7.99993 84.6151 8.02835C84.8382 8.05937 85.0993 8.13577 85.2932 8.36933C85.4901 8.60662 85.5129 8.87913 85.4951 9.10537C85.4792 9.30808 85.4159 9.58298 85.357 9.83904L85.1616 10.6886C84.8192 12.1775 83.5715 13.2701 82.0742 13.4945C81.8011 13.5354 81.5465 13.3472 81.5056 13.0741C81.4647 12.801 81.6529 12.5464 81.926 12.5055C83.0395 12.3387 83.9418 11.531 84.187 10.4645L84.3824 9.61493C84.4512 9.31597 84.4888 9.14644 84.4982 9.027Z" fill="#585858"/>
<path d="M75.5018 9.027C75.629 9.00933 75.8335 9.00001 76.1488 9.00001H76.7499C77.0261 9.00001 77.2499 8.77615 77.2499 8.50001C77.2499 8.22386 77.0261 8.00001 76.7499 8.00001L76.1179 8C75.8445 7.99996 75.5894 7.99993 75.3849 8.02835C75.1618 8.05937 74.9007 8.13577 74.7068 8.36933C74.5099 8.60662 74.4871 8.87913 74.5049 9.10537C74.5208 9.30808 74.5769 9.55175 74.6358 9.80781L74.8384 10.6886C75.1808 12.1775 76.4285 13.2701 77.9258 13.4945C78.1989 13.5354 78.4535 13.3472 78.4944 13.0741C78.5353 12.801 78.3471 12.5464 78.074 12.5055C76.9605 12.3387 76.0582 11.531 75.813 10.4645L75.6176 9.61493C75.5488 9.31597 75.5112 9.14644 75.5018 9.027Z" fill="#585858"/>
<path d="M78.5633 6.625L78.5933 6.625L81.4367 6.625H81.4367C81.8632 6.62498 82.228 6.62495 82.5193 6.67229C82.8366 6.72385 83.1162 6.83846 83.3326 7.10084C83.5416 7.35409 83.6133 7.63825 83.6236 7.95338C83.6331 8.24416 83.5905 8.59743 83.5405 9.01246C83.3454 10.6321 82.9178 12.0877 82.3317 13.1226C81.7563 14.1388 80.9628 14.875 80 14.875C79.0372 14.875 78.2436 14.1388 77.6682 13.1226C77.0822 12.0877 76.6546 10.6321 76.4594 9.01247C76.4094 8.59743 76.3668 8.24416 76.3763 7.95338C76.3867 7.63825 76.4584 7.35409 76.6673 7.10084C76.8838 6.83846 77.1634 6.72385 77.4806 6.67229C77.7719 6.62495 78.1367 6.62498 78.5633 6.625H78.5633Z" fill="#585858"/>
<defs>
<linearGradient id="paint0_linear_218_20734" x1="85.6154" y1="37.5614" x2="85.6154" y2="24.3953" gradientUnits="userSpaceOnUse">
<stop offset="0.0887564" stop-color="#212121"/>
<stop offset="1" stop-color="#212121"/>
</linearGradient>
<linearGradient id="paint1_linear_218_20734" x1="79.5" y1="29.9941" x2="79.5" y2="130.269" gradientUnits="userSpaceOnUse">
<stop stop-color="#1B1B21"/>
<stop offset="0.454412" stop-color="#1B1B21"/>
<stop offset="1" stop-color="#030303"/>
</linearGradient>
</defs>
</svg>
