<svg width="20" height="20" viewBox="0 0 20 20" fill="none" xmlns="http://www.w3.org/2000/svg">
<path fill-rule="evenodd" clip-rule="evenodd" d="M16.0053 5.17203C16.1571 5.01486 16.2411 4.80436 16.2392 4.58586C16.2373 4.36736 16.1497 4.15835 15.9952 4.00384C15.8407 3.84934 15.6317 3.7617 15.4132 3.7598C15.1947 3.7579 14.9842 3.84189 14.827 3.99369L9.9995 8.82119L5.172 3.99369C5.01483 3.84189 4.80433 3.7579 4.58583 3.7598C4.36733 3.7617 4.15832 3.84934 4.00382 4.00384C3.84931 4.15835 3.76167 4.36736 3.75977 4.58586C3.75787 4.80436 3.84187 5.01486 3.99366 5.17203L8.82117 9.99953L3.99366 14.827C3.91407 14.9039 3.85059 14.9959 3.80691 15.0975C3.76324 15.1992 3.74025 15.3085 3.73929 15.4192C3.73833 15.5298 3.75941 15.6396 3.80131 15.742C3.84321 15.8444 3.90509 15.9374 3.98334 16.0157C4.06158 16.0939 4.15462 16.1558 4.25704 16.1977C4.35945 16.2396 4.46918 16.2607 4.57983 16.2597C4.69048 16.2588 4.79983 16.2358 4.9015 16.1921C5.00317 16.1484 5.09513 16.085 5.172 16.0054L9.9995 11.1779L14.827 16.0054C14.9842 16.1572 15.1947 16.2412 15.4132 16.2393C15.6317 16.2374 15.8407 16.1497 15.9952 15.9952C16.1497 15.8407 16.2373 15.6317 16.2392 15.4132C16.2411 15.1947 16.1571 14.9842 16.0053 14.827L11.1778 9.99953L16.0053 5.17203Z" fill="#FFD400"/>
</svg>
