<svg width="32" height="32" viewBox="0 0 32 32" fill="none" xmlns="http://www.w3.org/2000/svg">
<path d="M26.2503 18.7908L26.4948 16.5179C26.6252 15.3052 26.7113 14.5044 26.6437 13.9999L26.6673 14C27.7719 14 28.6673 13.1046 28.6673 12C28.6673 10.8954 27.7719 10 26.6673 10C25.5628 10 24.6673 10.8954 24.6673 12C24.6673 12.4995 24.8505 12.9563 25.1533 13.3068C24.7185 13.5752 24.1503 14.1413 23.2947 14.9935C22.6356 15.65 22.306 15.9783 21.9384 16.0292C21.7347 16.0573 21.5272 16.0284 21.3391 15.9456C20.9996 15.796 20.7732 15.3903 20.3205 14.5787L17.9347 10.3005C17.6553 9.79983 17.4216 9.38076 17.2109 9.04353C18.0753 8.60249 18.6673 7.70371 18.6673 6.66667C18.6673 5.19391 17.4735 4 16.0007 4C14.5279 4 13.334 5.19391 13.334 6.66667C13.334 7.70371 13.926 8.60249 14.7904 9.04353C14.5797 9.38079 14.346 9.79979 14.0667 10.3005L11.6807 14.5787C11.2281 15.3903 11.0017 15.796 10.6623 15.9456C10.4742 16.0284 10.2666 16.0573 10.0629 16.0292C9.69528 15.9783 9.36573 15.65 8.70665 14.9935C7.85114 14.1413 7.28273 13.5752 6.84802 13.3068C7.15084 12.9563 7.33398 12.4995 7.33398 12C7.33398 10.8954 6.43856 10 5.33398 10C4.22941 10 3.33398 10.8954 3.33398 12C3.33398 13.1046 4.22941 14 5.33398 14L5.3576 13.9999C5.29001 14.5044 5.37614 15.3052 5.50658 16.5179L5.75105 18.7908C5.88676 20.0524 5.9996 21.2528 6.13781 22.3333H25.8635C26.0017 21.2528 26.1145 20.0524 26.2503 18.7908Z" fill="#FFD400"/>
<path d="M14.549 28.0007H17.4501C21.2314 28.0007 23.122 28.0007 24.3834 26.8716C24.9341 26.3787 25.2826 25.4903 25.5342 24.334H6.46484C6.71643 25.4903 7.06507 26.3787 7.61567 26.8716C8.87712 28.0007 10.7677 28.0007 14.549 28.0007Z" fill="#FFD400"/>
</svg>
