<svg width="20" height="20" viewBox="0 0 20 20" fill="none" xmlns="http://www.w3.org/2000/svg">
<g clip-path="url(#clip0_302_8180)">
<path opacity="0.5" d="M18.3307 9.99935H1.66406M9.9974 1.66602V18.3327" stroke="black" stroke-width="1.5" stroke-linecap="round"/>
<path d="M10.8281 10C10.8281 10.8841 11.1793 11.7319 11.8044 12.357C12.4296 12.9821 13.2774 13.3333 14.1615 13.3333M9.16146 10C9.16146 10.8841 8.81027 11.7319 8.18515 12.357C7.56003 12.9821 6.71218 13.3333 5.82812 13.3333" stroke="black" stroke-width="1.5" stroke-linecap="round"/>
<path d="M9.99834 8.36257C9.99881 7.75919 10.2008 7.17324 10.5721 6.6977C10.9435 6.22215 11.4631 5.88424 12.0483 5.73757C13.3842 5.40423 14.595 6.61423 14.2608 7.9509C14.1142 8.53618 13.7763 9.05573 13.3007 9.42711C12.8252 9.79849 12.2392 10.0004 11.6358 10.0009H9.99834M9.99834 8.36257V10.0009M9.99834 8.36257C9.99787 7.75919 9.79593 7.17324 9.42455 6.6977C9.05317 6.22215 8.53362 5.88424 7.94834 5.73757C6.61251 5.40423 5.40167 6.61423 5.73584 7.9509C5.88251 8.53618 6.22042 9.05573 6.69597 9.42711C7.17151 9.79849 7.75746 10.0004 8.36084 10.0009H9.99834" stroke="black" stroke-width="1.5"/>
<path d="M1.66406 9.99935C1.66406 6.07102 1.66406 4.10685 2.88406 2.88602C4.10573 1.66602 6.06906 1.66602 9.9974 1.66602C13.9257 1.66602 15.8899 1.66602 17.1099 2.88602C18.3307 4.10768 18.3307 6.07102 18.3307 9.99935C18.3307 13.9277 18.3307 15.8918 17.1099 17.1118C15.8907 18.3327 13.9257 18.3327 9.9974 18.3327C6.06906 18.3327 4.1049 18.3327 2.88406 17.1118C1.66406 15.8927 1.66406 13.9277 1.66406 9.99935Z" stroke="black" stroke-width="1.5"/>
</g>
<defs>
<clipPath id="clip0_302_8180">
<rect width="20" height="20" fill="white"/>
</clipPath>
</defs>
</svg>
