<svg width="30" height="30" viewBox="0 0 30 30" fill="none" xmlns="http://www.w3.org/2000/svg">
<path d="M14.9805 2.5C18.8164 2.5 21.9033 5.51859 21.9033 9.24512V11.1621C24.0562 11.8341 25.6249 13.7826 25.625 16.1104V22.2812C25.625 25.1631 23.2356 27.5 20.29 27.5H9.71094C6.76416 27.5 4.375 25.1631 4.375 22.2812V16.1104C4.37507 13.7826 5.94508 11.8341 8.09668 11.1621V9.24512C8.10938 5.51875 11.1956 2.50025 14.9805 2.5ZM14.9932 16.7305C14.3837 16.7307 13.8887 17.2154 13.8887 17.8115V20.5684C13.8887 21.1769 14.3837 21.6619 14.9932 21.6621C15.6155 21.6621 16.1113 21.177 16.1113 20.5684V17.8115C16.1113 17.2153 15.6155 16.7305 14.9932 16.7305ZM15.0068 4.67383C12.4285 4.67383 10.3323 6.71073 10.3193 9.21973V10.8926H19.6807V9.24512C19.6807 6.72366 17.5851 4.67409 15.0068 4.67383Z" fill="white"/>
</svg>
